<svg xmlns="http://www.w3.org/2000/svg" xmlns:xlink="http://www.w3.org/1999/xlink" fill="none" version="1.1" width="44" height="44" viewBox="0 0 44 44"><defs><linearGradient x1="0" y1="0" x2="1" y2="1" id="master_svg0_0_1373"><stop offset="0%" stop-color="#D3D7DB" stop-opacity="1"/><stop offset="100%" stop-color="#BDC1C3" stop-opacity="1"/></linearGradient></defs><g><g style="opacity:0;"><rect x="0" y="0" width="44" height="44" rx="0" fill="#000000" fill-opacity="1"/></g><g><path d="M22.015,22L21.0729,22C16.9199,22,13.543949999999999,18.6233,13.543949999999999,14.47296L13.543949999999999,13.53071C13.543949999999999,9.37672,16.9236,6,21.0729,6L27.4026,6C29.1364,6,29.5439,6.411549,29.5439,8.14207L29.5439,14.46929C29.5439,18.6233,26.1643,22,22.015,22ZM6,33.438500000000005C6,27.7683,13.17569,23.155,21.9981,23.155C30.8204,23.155,37.9961,27.7683,38,33.4424C38,34.8292,37.7327,35.862300000000005,36.2952,36.5934C35.373000000000005,37.1418,33.881299999999996,37.4756,31.5217,37.6663C29.2474,37.8928,26.1903,38.0001,22.0794,38.0001C18.247500000000002,38.0001,15.28345,37.9047,13.016829999999999,37.702C10.05279,37.495400000000004,8.34798,37.0981,7.4064700000000006,36.3789C6.267345,35.6636,6,34.6901,6,33.438500000000005Z" fill-rule="evenodd" fill="url(#master_svg0_0_1373)" fill-opacity="1"/></g></g></svg>