<svg xmlns="http://www.w3.org/2000/svg" xmlns:xlink="http://www.w3.org/1999/xlink" fill="none" version="1.1" width="44" height="44" viewBox="0 0 44 44"><defs><linearGradient x1="0" y1="0" x2="1" y2="1" id="master_svg0_0_1364"><stop offset="0%" stop-color="#DFCA8E" stop-opacity="1"/><stop offset="100%" stop-color="#FCEBB6" stop-opacity="1"/></linearGradient></defs><g><g style="opacity:0;"><rect x="0" y="0" width="44" height="44" rx="0" fill="#000000" fill-opacity="1"/></g><g><path d="M24.482,5.800046L37.232,14.92904C38.3351,15.7226,38.9922,16.9957,39,18.3545L39,34.751000000000005C39,37.0982,37.0972,39.001,34.75,39.001L9.25,39.001C6.9027899999999995,39.001,5,37.0982,5,34.751000000000005L5,18.329C5.0159338,16.9792,5.672153,15.7173,6.768,14.92904L19.518,5.800046C21.0007,4.733318,22.9993,4.733318,24.482,5.800046ZM14.2002,26.751C14.2002,30.5638,17.2396,33.6657,20.9756,33.6657Q27.751,30.5638,27.751,26.751L27.751,25.6339L21.0032,25.6339L21.0032,27.868L25.43,27.868C24.9379,29.9114,23.1275,31.4317,20.9756,31.4317C18.4468,31.4317,16.389200000000002,29.3319,16.389200000000002,26.751C16.389200000000002,24.1701,18.4468,22.0704,20.9756,22.0704L32.560199999999995,22.0704L32.560199999999995,19.8363L20.9756,19.8363C17.2396,19.8363,14.2002,22.9382,14.2002,26.751Z" fill-rule="evenodd" fill="url(#master_svg0_0_1364)" fill-opacity="1"/></g></g></svg>